<?xml version="1.0" encoding="UTF-8" standalone="no"?>
<!-- Created with Inkscape (http://www.inkscape.org/) -->

<svg
   width="16"
   height="16"
   viewBox="0 0 16 16"
   version="1.1"
   id="svg1"
   inkscape:version="1.3.2 (091e20e, 2023-11-25)"
   sodipodi:docname="sys-monitor.svg"
   xmlns:inkscape="http://www.inkscape.org/namespaces/inkscape"
   xmlns:sodipodi="http://sodipodi.sourceforge.net/DTD/sodipodi-0.dtd"
   xmlns="http://www.w3.org/2000/svg"
   xmlns:svg="http://www.w3.org/2000/svg">
  <sodipodi:namedview
     id="namedview1"
     pagecolor="#ffffff"
     bordercolor="#000000"
     borderopacity="0.25"
     inkscape:showpageshadow="2"
     inkscape:pageopacity="0.0"
     inkscape:pagecheckerboard="0"
     inkscape:deskcolor="#d1d1d1"
     inkscape:document-units="px"
     inkscape:zoom="45.254834"
     inkscape:cx="7.6345435"
     inkscape:cy="7.0710678"
     inkscape:window-width="1920"
     inkscape:window-height="976"
     inkscape:window-x="0"
     inkscape:window-y="0"
     inkscape:window-maximized="1"
     inkscape:current-layer="layer1"
     showgrid="false" />
  <defs
     id="defs1" />
  <g
     inkscape:label="图层 1"
     inkscape:groupmode="layer"
     id="layer1">
    <path
       id="rect1"
       style="fill:none;stroke:#000000;stroke-width:0.501;stroke-linecap:round;stroke-linejoin:round"
       d="M 3.9594204,1.5003996 H 12.04058 c 1.362297,0 2.45902,1.0967233 2.45902,2.4590208 V 12.04058 c 0,1.362297 -1.096723,2.45902 -2.45902,2.45902 H 3.9594204 c -1.3622975,0 -2.4590208,-1.096723 -2.4590208,-2.45902 V 3.9594204 c 0,-1.3622975 1.0967233,-2.4590208 2.4590208,-2.4590208 z" />
    <path
       id="rect1-9"
       style="fill:none;stroke:#000000;stroke-width:0.521542;stroke-linecap:round;stroke-linejoin:round"
       d="m 4.3646162,2.760771 h 7.2707678 c 0.888531,0 1.603845,0.715315 1.603845,1.6038452 v 5.2707681 c 0,0.8885307 -0.715314,1.6038447 -1.603845,1.6038447 H 4.3646162 c -0.8885302,0 -1.6038452,-0.715314 -1.6038452,-1.6038447 V 4.3646162 c 0,-0.8885302 0.715315,-1.6038452 1.6038452,-1.6038452 z" />
    <path
       id="path1"
       style="stroke:#000000;stroke-width:0.3;stroke-linecap:round;stroke-linejoin:round"
       d="M 13.335034,12.692517 A 0.74251688,0.74251688 0 0 1 12.592517,13.435034 0.74251688,0.74251688 0 0 1 11.85,12.692517 0.74251688,0.74251688 0 0 1 12.592517,11.95 a 0.74251688,0.74251688 0 0 1 0.742517,0.742517 z" />
    <path
       id="rect2"
       style="stroke:#000000;stroke-width:0.243941;stroke-linecap:round;stroke-linejoin:round"
       d="M 9.3219709,12.221971 H 10.87803 v 0.956058 H 9.3219709 Z" />
    <path
       id="形状"
       style="stroke:none;stroke-width:0.892;stroke-dasharray:none"
       inkscape:label="形状"
       sodipodi:type="inkscape:offset"
       inkscape:radius="0"
       inkscape:original="M 7.2246094 4.6269531 C 6.2700158 4.5082672 5.8311618 5.1128144 5.4902344 6.4199219 L 5.4003906 6.7949219 L 5.2285156 7.5566406 C 5.1274524 7.9629491 5.0458152 8.186725 5.0136719 8.2558594 L 5 8.2792969 C 4.602072 8.349494 4.3139963 8.2029605 4.0605469 7.7734375 C 3.9352965 7.5611746 3.6614816 7.489984 3.4492188 7.6152344 C 3.2369557 7.7404849 3.1677183 8.0142996 3.2929688 8.2265625 C 3.7282757 8.9642805 4.3738703 9.2958756 5.1542969 9.1582031 C 5.7330522 9.0561069 5.9051999 8.6362619 6.1679688 7.4511719 L 6.3144531 6.8027344 C 6.5522704 5.8297728 6.7832589 5.4723968 7.1152344 5.5136719 C 7.2771791 5.5338066 7.4853798 5.8112645 7.5839844 6.3164062 C 7.624586 6.5244037 7.6393293 6.7661125 7.6445312 7.1816406 L 7.6523438 7.6660156 C 7.6860874 8.8208971 7.8482127 9.2440095 8.578125 9.3378906 C 9.3365683 9.4354407 9.6599934 9.0842233 9.8828125 8.3085938 C 9.8846333 8.302237 9.9457859 8.0818509 9.9648438 8.0175781 L 10.027344 7.8203125 L 10.060547 7.734375 C 10.172675 7.4415236 10.52452 7.4841596 10.580078 7.78125 C 10.762692 8.7577429 11.463738 9.4513945 12.376953 9.3378906 C 12.621533 9.3074933 12.794065 9.0844225 12.763672 8.8398438 C 12.733275 8.5952642 12.512158 8.422728 12.267578 8.453125 L 12.179688 8.4570312 C 11.839016 8.4483846 11.553501 8.1330611 11.457031 7.6171875 L 11.429688 7.5 C 11.132146 6.4412315 9.6522561 6.3022629 9.2265625 7.4140625 C 9.1848207 7.5230811 9.1474363 7.6353033 9.109375 7.7636719 L 8.9960938 8.1621094 C 8.9054155 8.4676842 8.8778129 8.477101 8.6914062 8.453125 C 8.6209806 8.4440668 8.5646319 8.2422031 8.5449219 7.6230469 L 8.5273438 6.8105469 C 8.5170097 6.5420211 8.4975424 6.3420581 8.4589844 6.1445312 C 8.2946446 5.3026354 7.8464397 4.7042661 7.2246094 4.6269531 z "
       d="M 7.2246094,4.6269531 C 6.2700158,4.5082672 5.8311618,5.1128144 5.4902344,6.4199219 l -0.089844,0.375 -0.171875,0.7617187 C 5.1274524,7.9629491 5.0458152,8.186725 5.0136719,8.2558594 L 5,8.2792969 C 4.602072,8.349494 4.3139963,8.2029605 4.0605469,7.7734375 3.9352965,7.5611746 3.6614816,7.489984 3.4492188,7.6152344 3.2369557,7.7404849 3.1677183,8.0142996 3.2929688,8.2265625 3.7282757,8.9642805 4.3738703,9.2958756 5.1542969,9.1582031 5.7330522,9.0561069 5.9051999,8.6362619 6.1679688,7.4511719 L 6.3144531,6.8027344 C 6.5522704,5.8297728 6.7832589,5.4723968 7.1152344,5.5136719 c 0.1619447,0.020135 0.3701454,0.2975926 0.46875,0.8027343 0.040602,0.2079975 0.055345,0.4497063 0.060547,0.8652344 l 0.00781,0.484375 c 0.033744,1.1548815 0.1958689,1.5779939 0.9257812,1.671875 0.7584433,0.09755 1.0818684,-0.2536673 1.3046875,-1.0292968 0.00182,-0.00636 0.062973,-0.2267429 0.082031,-0.2910157 l 0.0625,-0.1972656 0.0332,-0.085937 c 0.112128,-0.2928514 0.463973,-0.2502154 0.519531,0.046875 0.182614,0.9764929 0.88366,1.6701445 1.796875,1.5566406 0.24458,-0.030397 0.417112,-0.2534681 0.386719,-0.4980468 C 12.733275,8.5952642 12.512158,8.422728 12.267578,8.453125 l -0.08789,0.00391 C 11.839016,8.4483846 11.553501,8.1330611 11.457031,7.6171875 L 11.429688,7.5 C 11.132146,6.4412315 9.6522561,6.3022629 9.2265625,7.4140625 9.1848207,7.5230811 9.1474363,7.6353033 9.109375,7.7636719 L 8.9960938,8.1621094 C 8.9054155,8.4676842 8.8778129,8.477101 8.6914062,8.453125 8.6209806,8.4440668 8.5646319,8.2422031 8.5449219,7.6230469 l -0.017578,-0.8125 C 8.5170097,6.5420211 8.4975424,6.3420581 8.4589844,6.1445312 8.2946446,5.3026354 7.8464397,4.7042661 7.2246094,4.6269531 Z" />
  </g>
</svg>
